<?xml version="1.0" standalone="no"?>
<!DOCTYPE svg PUBLIC "-//W3C//DTD SVG 20010904//EN"
 "http://www.w3.org/TR/2001/REC-SVG-20010904/DTD/svg10.dtd">
<svg version="1.0" xmlns="http://www.w3.org/2000/svg"
 width="200.000000pt" height="214.000000pt" viewBox="0 0 200.000000 214.000000"
 preserveAspectRatio="xMidYMid meet">
<metadata>
Created by potrace 1.10, written by Peter Selinger 2001-2011
</metadata>
<g transform="translate(0.000000,214.000000) scale(0.100000,-0.100000)"
fill="#000000" stroke="none">
<path d="M1681 2043 c-170 -84 -590 -599 -873 -1067 -46 -77 -89 -141 -96
-144 -18 -6 -15 92 7 238 53 342 66 698 28 767 -37 69 -103 47 -187 -64 -64
-84 -158 -270 -203 -399 -113 -326 -141 -750 -53 -823 26 -22 32 -4 11 32 -25
41 -32 199 -15 335 39 316 134 604 261 787 88 128 148 165 170 108 13 -33 7
-298 -10 -443 -55 -468 -60 -544 -38 -574 26 -35 50 -13 144 129 263 400 407
601 567 788 185 218 356 344 380 281 9 -25 7 -181 -4 -274 -26 -212 -92 -590
-141 -810 -29 -131 -168 -690 -189 -760 -13 -46 -13 -60 3 -60 16 0 159 486
223 760 64 271 136 705 154 922 17 202 -6 298 -72 298 -8 0 -38 -12 -67 -27z"/>
</g>
</svg>
